<svg xmlns="http://www.w3.org/2000/svg" viewBox="0 0 1200 630" width="1200" height="630" role="img" aria-labelledby="t d">
<title id="t">7 AEO strategies for startups to get cited in AI answers</title><desc id="d">A rising staircase of seven steps ending in a highlighted citation card on a dark green grid, representing seven AEO strategies for startups</desc>
<defs>
<radialGradient id="glow" cx="75%" cy="45%" r="60%"><stop offset="0" stop-color="#10b261" stop-opacity=".28"/><stop offset="1" stop-color="#10b261" stop-opacity="0"/></radialGradient>
<linearGradient id="grn" x1="0" y1="0" x2="1" y2="1"><stop offset="0" stop-color="#00f57b"/><stop offset="1" stop-color="#10b261"/></linearGradient>
<marker id="arr" viewBox="0 0 10 10" refX="8" refY="5" markerWidth="8" markerHeight="8" orient="auto"><path d="M0 0L10 5L0 10z" fill="#10b261"/></marker>
</defs>
<rect width="1200" height="630" fill="#060e0e"/>
<g stroke="#1f3638" stroke-width="1" opacity=".55"><path d="M0 0V630" /><path d="M64 0V630" /><path d="M128 0V630" /><path d="M192 0V630" /><path d="M256 0V630" /><path d="M320 0V630" /><path d="M384 0V630" /><path d="M448 0V630" /><path d="M512 0V630" /><path d="M576 0V630" /><path d="M640 0V630" /><path d="M704 0V630" /><path d="M768 0V630" /><path d="M832 0V630" /><path d="M896 0V630" /><path d="M960 0V630" /><path d="M1024 0V630" /><path d="M1088 0V630" /><path d="M1152 0V630" /><path d="M0 0H1200" /><path d="M0 64H1200" /><path d="M0 128H1200" /><path d="M0 192H1200" /><path d="M0 256H1200" /><path d="M0 320H1200" /><path d="M0 384H1200" /><path d="M0 448H1200" /><path d="M0 512H1200" /><path d="M0 576H1200" /></g>
<rect width="1200" height="630" fill="url(#glow)"/>

<rect x="72" y="72" width="190" height="40" rx="20" fill="#0c3126" stroke="#10b261" stroke-width="1.5"/>
<text x="167" y="99" font-family="Instrument Sans, Inter, Helvetica, Arial, sans-serif" font-size="15" font-weight="600" fill="#00f57b" text-anchor="middle" opacity="1">AEO FOR STARTUPS</text>
<text x="72" y="250" font-family="Instrument Sans, Inter, Helvetica, Arial, sans-serif" font-size="60" font-weight="600" fill="#f6f9f7" text-anchor="start" opacity="1">7 AEO strategies</text>
<text x="72" y="322" font-family="Instrument Sans, Inter, Helvetica, Arial, sans-serif" font-size="60" font-weight="600" fill="#f6f9f7" text-anchor="start" opacity="1">for startups to get</text>
<text x="72" y="394" font-family="Instrument Sans, Inter, Helvetica, Arial, sans-serif" font-size="60" font-weight="600" fill="#f6f9f7" text-anchor="start" opacity="1">cited in AI answers</text>
<text x="72" y="560" font-family="Instrument Sans, Inter, Helvetica, Arial, sans-serif" font-size="30" font-weight="700" fill="#f6f9f7" text-anchor="start" opacity="1">AirMax</text>
<text x="168" y="560" font-family="Instrument Sans, Inter, Helvetica, Arial, sans-serif" font-size="22" font-weight="500" fill="#8fa5a0" text-anchor="start" opacity="1">AEO agency for startups</text>
<g transform="translate(700 130)"><g transform="translate(0 20)"><rect x="0" y="300" width="54" height="42" rx="8" fill="#0b1919" stroke="#11474a" stroke-width="2"/><text x="27" y="340" font-family="Instrument Sans, Inter, Helvetica, Arial, sans-serif" font-size="24" font-weight="700" fill="#f6f9f7" text-anchor="middle" opacity="1">1</text><rect x="62" y="258" width="54" height="84" rx="8" fill="#0b1919" stroke="#11474a" stroke-width="2"/><text x="89" y="298" font-family="Instrument Sans, Inter, Helvetica, Arial, sans-serif" font-size="24" font-weight="700" fill="#f6f9f7" text-anchor="middle" opacity="1">2</text><rect x="124" y="216" width="54" height="126" rx="8" fill="#0b1919" stroke="#11474a" stroke-width="2"/><text x="151" y="256" font-family="Instrument Sans, Inter, Helvetica, Arial, sans-serif" font-size="24" font-weight="700" fill="#f6f9f7" text-anchor="middle" opacity="1">3</text><rect x="186" y="174" width="54" height="168" rx="8" fill="#0b1919" stroke="#11474a" stroke-width="2"/><text x="213" y="214" font-family="Instrument Sans, Inter, Helvetica, Arial, sans-serif" font-size="24" font-weight="700" fill="#f6f9f7" text-anchor="middle" opacity="1">4</text><rect x="248" y="132" width="54" height="210" rx="8" fill="#0b1919" stroke="#11474a" stroke-width="2"/><text x="275" y="172" font-family="Instrument Sans, Inter, Helvetica, Arial, sans-serif" font-size="24" font-weight="700" fill="#f6f9f7" text-anchor="middle" opacity="1">5</text><rect x="310" y="90" width="54" height="252" rx="8" fill="#0b1919" stroke="#11474a" stroke-width="2"/><text x="337" y="130" font-family="Instrument Sans, Inter, Helvetica, Arial, sans-serif" font-size="24" font-weight="700" fill="#f6f9f7" text-anchor="middle" opacity="1">6</text><rect x="372" y="48" width="54" height="294" rx="8" fill="#0c3126" stroke="#00f57b" stroke-width="2"/><text x="399" y="88" font-family="Instrument Sans, Inter, Helvetica, Arial, sans-serif" font-size="24" font-weight="700" fill="#00f57b" text-anchor="middle" opacity="1">7</text></g></g>
</svg>
